<svg width="169" height="169" viewBox="0 0 169 169" fill="none" xmlns="http://www.w3.org/2000/svg">
<circle cx="84.5" cy="84.5" r="83" stroke="#ED6E1E" stroke-width="3"/>
<path d="M117.713 62.075C117.425 61.7875 117.138 61.5 116.563 61.5H61.9375L60.5 54.025C60.5 53.45 59.6375 52.8751 59.0624 52.8751H50.4374C49.575 52.875 49 53.45 49 54.3125C49 55.175 49.575 55.75 50.4375 55.75H57.9126L64.8126 90.8251C65.6751 95.4251 69.9876 98.8751 74.5875 98.8751H107.65C108.513 98.8751 109.088 98.3 109.088 97.4375C109.088 96.575 108.513 96 107.65 96H74.875C72.575 96 70.275 94.85 69.125 92.8374L111.1 87.0875C111.675 87.0875 112.25 86.5125 112.25 85.9376L118 62.9375C118 62.9375 118 62.3625 117.713 62.075ZM109.662 84.5L67.6874 89.9625L62.5124 64.0875H114.55L109.662 84.5Z" fill="#ED6E1E"/>
<path d="M73.4375 101.75C69.4125 101.75 66.25 104.913 66.25 108.937C66.25 112.963 69.4125 116.125 73.4375 116.125C77.4625 116.125 80.6249 112.962 80.6249 108.937C80.625 104.913 77.4625 101.75 73.4375 101.75ZM73.4375 113.25C71.1374 113.25 69.125 111.237 69.125 108.937C69.125 106.638 71.1374 104.625 73.4375 104.625C75.7375 104.625 77.75 106.638 77.75 108.937C77.75 111.237 75.7375 113.25 73.4375 113.25Z" fill="#ED6E1E"/>
<path d="M102.187 101.75C98.1624 101.75 95 104.913 95 108.937C95 112.963 98.1625 116.125 102.187 116.125C106.212 116.125 109.375 112.962 109.375 108.937C109.375 104.913 106.212 101.75 102.187 101.75ZM102.187 113.25C99.8874 113.25 97.875 111.237 97.875 108.937C97.875 106.638 99.8874 104.625 102.187 104.625C104.487 104.625 106.5 106.638 106.5 108.937C106.5 111.237 104.487 113.25 102.187 113.25Z" fill="#ED6E1E"/>
</svg>
