<svg width="19" height="19" viewBox="0 0 19 19" fill="none" xmlns="http://www.w3.org/2000/svg">
<g clip-path="url(#clip0)">
<path d="M3.95833 0H0.791667C0.354667 0 0 0.354667 0 0.791667V3.95833C0 4.39533 0.354667 4.75 0.791667 4.75H3.95833C4.39533 4.75 4.75 4.39533 4.75 3.95833V0.791667C4.75 0.354667 4.39533 0 3.95833 0Z" fill="#ED6E1E"/>
<path d="M18.2083 -3.8147e-06H7.12492C6.68792 -3.8147e-06 6.33325 0.354663 6.33325 0.791663V3.95833C6.33325 4.39533 6.68792 4.75 7.12492 4.75H18.2083C18.6453 4.75 18.9999 4.39533 18.9999 3.95833V0.791663C18.9999 0.354663 18.6453 -3.8147e-06 18.2083 -3.8147e-06Z" fill="#ED6E1E"/>
<path d="M3.95833 7.125H0.791667C0.354667 7.125 0 7.47967 0 7.91667V11.0833C0 11.5203 0.354667 11.875 0.791667 11.875H3.95833C4.39533 11.875 4.75 11.5203 4.75 11.0833V7.91667C4.75 7.47967 4.39533 7.125 3.95833 7.125Z" fill="#ED6E1E"/>
<path d="M18.2083 7.125H7.12492C6.68792 7.125 6.33325 7.47967 6.33325 7.91667V11.0833C6.33325 11.5203 6.68792 11.875 7.12492 11.875H18.2083C18.6453 11.875 18.9999 11.5203 18.9999 11.0833V7.91667C18.9999 7.47967 18.6453 7.125 18.2083 7.125Z" fill="#ED6E1E"/>
<path d="M3.95833 14.25H0.791667C0.354667 14.25 0 14.6047 0 15.0417V18.2083C0 18.6453 0.354667 19 0.791667 19H3.95833C4.39533 19 4.75 18.6453 4.75 18.2083V15.0417C4.75 14.6047 4.39533 14.25 3.95833 14.25Z" fill="#ED6E1E"/>
<path d="M18.2083 14.25H7.12492C6.68792 14.25 6.33325 14.6047 6.33325 15.0417V18.2083C6.33325 18.6453 6.68792 19 7.12492 19H18.2083C18.6453 19 18.9999 18.6453 18.9999 18.2083V15.0417C18.9999 14.6047 18.6453 14.25 18.2083 14.25Z" fill="#ED6E1E"/>
</g>
<defs>
<clipPath id="clip0">
<rect width="19" height="19" fill="white"/>
</clipPath>
</defs>
</svg>
