<svg width="270" height="45" viewBox="0 0 270 45" fill="none" xmlns="http://www.w3.org/2000/svg">
<g clip-path="url(#clip0)">
<path d="M260.507 31.2229C260.507 31.8422 260.715 32.3798 261.143 32.8121C261.571 33.2561 262.103 33.4665 262.716 33.4665C263.328 33.4665 263.849 33.2561 264.277 32.8121C264.704 32.3798 264.912 31.8422 264.912 31.2229C264.912 30.6153 264.704 30.0778 264.277 29.6454C263.849 29.2014 263.328 28.9794 262.716 28.9794C262.114 28.9794 261.594 29.2014 261.166 29.6454C260.727 30.0778 260.507 30.6153 260.507 31.2229ZM255.419 31.2229C255.419 29.2014 256.148 27.5772 257.605 26.3503C258.969 25.2285 260.669 24.6559 262.716 24.6559C263.537 24.6559 264.265 24.7728 264.912 24.9831V24.8312C264.912 24.2119 264.693 23.6977 264.265 23.2537C263.837 22.8214 263.317 22.5994 262.716 22.5994C262.288 22.5994 261.71 22.8681 260.981 23.3823C260.264 23.9081 259.628 24.1652 259.096 24.1652C258.495 24.1652 257.986 23.9782 257.535 23.6043C257.05 23.1953 256.807 22.7045 256.807 22.1203C256.807 21.5711 257.061 20.9985 257.593 20.4259C258.935 18.9887 260.657 18.2759 262.739 18.2759C264.762 18.2759 266.473 19.0004 267.884 20.4376C269.295 21.8632 270 23.6043 270 25.6375V35.2426C270 35.9904 269.769 36.6097 269.295 37.0771C268.809 37.5562 268.208 37.7899 267.456 37.7899C266.763 37.7899 266.173 37.5796 265.687 37.1473C264.878 37.5796 263.895 37.7899 262.716 37.7899C260.669 37.7899 258.969 37.2291 257.605 36.0956C256.148 34.8804 255.419 33.2561 255.419 31.2229Z" fill="#5F301B"/>
<path d="M235.578 35.2426V20.8349C235.578 20.087 235.821 19.4677 236.306 18.9887C236.78 18.5212 237.393 18.2759 238.145 18.2759C238.885 18.2759 239.498 18.5212 239.972 18.9887C240.434 19.4677 240.677 20.087 240.677 20.8349V27.8576C240.712 27.2033 241.024 26.6073 241.614 26.0932L241.475 26.1867C241.486 26.175 244.181 23.7445 249.569 18.9069C250.077 18.4395 250.633 18.2174 251.245 18.2174C251.928 18.2174 252.54 18.4862 253.061 19.0237C253.581 19.5612 253.847 20.1805 253.847 20.8699C253.847 21.5711 253.546 22.202 252.933 22.7512L247.048 28.0329L252.933 33.3029C253.546 33.8521 253.847 34.483 253.847 35.1958C253.847 35.8969 253.581 36.5162 253.061 37.0421C252.54 37.5679 251.928 37.8367 251.245 37.8367C250.633 37.8367 250.077 37.6146 249.569 37.1472L241.614 29.9843C241.024 29.4702 240.712 28.8742 240.677 28.2199V35.2426C240.677 35.9904 240.434 36.598 239.96 37.0771C239.475 37.5562 238.873 37.7899 238.145 37.7899C237.393 37.7899 236.78 37.5562 236.306 37.0654C235.821 36.5864 235.578 35.9787 235.578 35.2426Z" fill="#5F301B"/>
<path d="M216.765 20.8349C216.765 20.0871 216.997 19.4678 217.471 18.9887C217.933 18.5213 218.535 18.2759 219.275 18.2759H229.901C230.641 18.2759 231.242 18.5213 231.716 18.9887C232.178 19.4678 232.41 20.0871 232.41 20.8349C232.41 21.5828 232.178 22.2021 231.716 22.6695C231.242 23.1486 230.641 23.3823 229.912 23.3823H227.114V35.2426C227.114 35.9904 226.883 36.5981 226.42 37.0771C225.946 37.5562 225.333 37.7899 224.57 37.7899C223.819 37.7899 223.206 37.5562 222.732 37.0655C222.258 36.5864 222.026 35.9788 222.026 35.2426V23.3823H219.263C218.523 23.3823 217.922 23.1486 217.471 22.6695C216.997 22.2021 216.765 21.5828 216.765 20.8349Z" fill="#5F301B"/>
<path d="M195.953 35.1958C195.953 35.1491 195.964 35.079 195.987 34.9855C196.01 34.9037 196.01 34.8336 196.01 34.7752V20.8349C196.01 20.0871 196.253 19.4677 196.727 18.9887C197.201 18.5213 197.814 18.2759 198.566 18.2759C199.306 18.2759 199.919 18.5213 200.393 18.9887C200.867 19.4677 201.11 20.0871 201.11 20.8349V28.4185L208.822 19.4911C209.539 18.6615 210.256 18.2408 210.984 18.2408C211.724 18.2408 212.349 18.4979 212.857 19.012C213.378 19.5262 213.632 20.1572 213.632 20.87C213.632 20.9284 213.62 20.9985 213.597 21.0803C213.586 21.1738 213.574 21.2439 213.574 21.3023V35.2426C213.574 35.9904 213.331 36.5981 212.857 37.0771C212.383 37.5562 211.77 37.7899 211.03 37.7899C210.279 37.7899 209.666 37.5562 209.192 37.0655C208.718 36.5864 208.487 35.9787 208.487 35.2426V27.6473L200.751 36.5864C200.034 37.416 199.317 37.8367 198.6 37.8367C197.872 37.8367 197.248 37.5796 196.727 37.0655C196.207 36.5513 195.953 35.9203 195.953 35.1958Z" fill="#5F301B"/>
<path d="M171.625 35.301C171.625 34.857 171.74 34.4246 171.983 33.9923L179.753 20.0169C180.412 18.8601 181.222 18.2642 182.205 18.2525C183.176 18.2525 183.985 18.8368 184.633 20.0169L192.414 33.9923C192.669 34.448 192.784 34.8803 192.784 35.301C192.784 36.0021 192.519 36.5981 191.987 37.0888C191.455 37.5913 190.83 37.8367 190.125 37.8367C189.212 37.8367 188.506 37.381 188.021 36.4929L182.205 26.0581L176.4 36.4929C175.903 37.381 175.198 37.8367 174.273 37.8367C173.579 37.8367 172.966 37.5913 172.434 37.0888C171.891 36.5981 171.625 36.0021 171.625 35.301Z" fill="#5F301B"/>
<path d="M154.489 35.2426V20.8349C154.489 20.1572 154.743 19.5612 155.264 19.0354C155.772 18.533 156.362 18.2759 157.033 18.2759H165.936C166.664 18.2759 167.266 18.5096 167.751 18.9887C168.225 19.4561 168.468 20.052 168.468 20.7882V35.2426C168.468 35.9904 168.225 36.6097 167.763 37.0771C167.289 37.5562 166.676 37.7899 165.936 37.7899C165.184 37.7899 164.572 37.5562 164.097 37.0655C163.612 36.5864 163.369 35.9788 163.369 35.2426V23.3823H159.588V35.2426C159.588 35.9904 159.345 36.5981 158.86 37.0771C158.385 37.5562 157.773 37.7899 157.056 37.7899C156.304 37.7899 155.691 37.5562 155.206 37.0655C154.732 36.5864 154.489 35.9788 154.489 35.2426Z" fill="#5F301B"/>
<path d="M137.122 28.0446C137.122 29.3416 137.561 30.44 138.451 31.3398C139.342 32.2395 140.417 32.6953 141.701 32.6953C142.972 32.6953 144.059 32.2395 144.938 31.3398C145.84 30.44 146.291 29.3416 146.291 28.0446C146.291 26.7592 145.852 25.6608 144.961 24.7494C144.071 23.838 142.984 23.3823 141.701 23.3823C140.417 23.3823 139.342 23.838 138.451 24.7494C137.561 25.6608 137.122 26.7592 137.122 28.0446ZM132.023 42.4523V20.8349C132.023 20.0871 132.265 19.4678 132.751 18.9887C133.225 18.5213 133.838 18.2759 134.59 18.2759C135.642 18.2759 136.405 18.7199 136.844 19.608C138.336 18.7199 139.955 18.2759 141.701 18.2759C144.383 18.2759 146.661 19.2224 148.546 21.127C150.442 23.0317 151.379 25.3337 151.379 28.0446C151.379 30.7555 150.442 33.0575 148.546 34.9505C146.661 36.8434 144.383 37.7899 141.701 37.7899C140.059 37.7899 138.544 37.416 137.122 36.6331V42.4523C137.122 43.2001 136.879 43.8194 136.405 44.2868C135.931 44.7659 135.318 44.9996 134.59 44.9996C133.838 44.9996 133.225 44.7659 132.751 44.2752C132.265 43.7961 132.023 43.1768 132.023 42.4523Z" fill="#5F301B"/>
<path d="M114.702 28.0446C114.702 29.3416 115.153 30.44 116.043 31.3398C116.945 32.2395 118.02 32.6952 119.292 32.6952C120.564 32.6952 121.639 32.2395 122.53 31.3398C123.42 30.44 123.871 29.3416 123.871 28.0446C123.871 26.7592 123.42 25.6608 122.53 24.7494C121.639 23.838 120.564 23.3823 119.292 23.3823C118.02 23.3823 116.945 23.838 116.043 24.7494C115.153 25.6608 114.702 26.7592 114.702 28.0446ZM109.614 28.0446C109.614 25.3337 110.562 23.0317 112.435 21.127C114.32 19.2224 116.598 18.2759 119.292 18.2759C121.975 18.2759 124.264 19.2224 126.137 21.127C128.022 23.0317 128.97 25.3337 128.97 28.0446C128.97 30.7555 128.022 33.0575 126.137 34.9505C124.264 36.8434 121.975 37.7899 119.292 37.7899C116.598 37.7899 114.32 36.8434 112.435 34.9505C110.562 33.0575 109.614 30.7555 109.614 28.0446Z" fill="#5F301B"/>
<path d="M89.7726 35.2426V20.8349C89.7726 20.087 90.0154 19.4677 90.5011 18.9887C90.9751 18.5212 91.588 18.2759 92.3395 18.2759C93.0795 18.2759 93.6924 18.5212 94.1664 18.9887C94.6289 19.4677 94.8718 20.087 94.8718 20.8349V27.8576C94.9064 27.2033 95.2186 26.6073 95.8083 26.0932L95.6696 26.1867C95.6811 26.175 98.3868 23.7445 103.763 18.9069C104.272 18.4395 104.827 18.2174 105.44 18.2174C106.122 18.2174 106.735 18.4862 107.255 19.0237C107.776 19.5612 108.042 20.1805 108.042 20.8699C108.042 21.5711 107.741 22.202 107.128 22.7512L101.243 28.0329L107.128 33.3029C107.741 33.8521 108.042 34.483 108.042 35.1958C108.042 35.8969 107.776 36.5162 107.255 37.0421C106.735 37.5679 106.122 37.8367 105.44 37.8367C104.827 37.8367 104.272 37.6146 103.763 37.1472L95.8083 29.9843C95.2186 29.4702 94.9064 28.8742 94.8718 28.2199V35.2426C94.8718 35.9904 94.6289 36.598 94.1549 37.0771C93.6808 37.5562 93.068 37.7899 92.3395 37.7899C91.588 37.7899 90.9751 37.5562 90.5011 37.0654C90.0154 36.5864 89.7726 35.9787 89.7726 35.2426Z" fill="#5F301B"/>
<path d="M73.3305 27.7642L79.9559 23.873C79.3084 23.5458 78.6262 23.3823 77.9093 23.3823C76.6952 23.3823 75.6546 23.8029 74.7643 24.6442C73.8739 25.4856 73.3999 26.5255 73.3305 27.7642ZM68.2545 28.0446C68.2545 25.3337 69.191 23.0317 71.0758 21.127C72.9489 19.2224 75.2383 18.2759 77.9093 18.2759C80.3953 18.2759 82.6847 19.2457 84.7544 21.1738C85.9916 22.3306 86.6044 23.4757 86.6044 24.6092C86.6044 25.4856 86.1882 26.175 85.3557 26.6541L75.8627 32.2045C76.5102 32.5433 77.1924 32.7069 77.9093 32.6952C79.0078 32.6952 79.9212 32.3798 80.6497 31.7604C81.1469 31.1996 81.6325 30.627 82.1066 30.0544C82.7656 29.4001 83.4016 29.0612 84.0028 29.0612C84.685 29.0612 85.2979 29.3183 85.8413 29.809C86.3732 30.2998 86.6391 30.8957 86.6391 31.5969C86.6391 31.9825 86.5235 32.4265 86.2691 32.9173C85.5175 34.3896 84.3497 35.5815 82.7425 36.4929C81.2047 37.3576 79.5975 37.7899 77.9093 37.7899C75.2383 37.7899 72.9489 36.8434 71.0758 34.9505C69.191 33.0575 68.2545 30.7555 68.2545 28.0446Z" fill="#5F301B"/>
<path d="M52.4252 32.7283H59.779L56.1021 26.0795L52.4252 32.7283ZM45.5338 35.3107C45.5338 34.8667 45.7304 34.2941 46.1119 33.6047L53.6739 20.015C54.3214 18.8348 55.1308 18.2505 56.1021 18.2388C57.0734 18.2388 57.8943 18.8231 58.5534 20.015L66.0923 33.6047C66.4738 34.2941 66.6704 34.8667 66.6704 35.3107C66.6704 36.0469 66.4044 36.6662 65.8841 37.1336C65.3754 37.601 64.7394 37.8347 63.9994 37.8347H48.2048C47.4648 37.8347 46.8404 37.5893 46.3085 37.1219C45.7998 36.6428 45.5338 36.0352 45.5338 35.3107Z" fill="#5F301B"/>
<path fill-rule="evenodd" clip-rule="evenodd" d="M0 11.8958L27.0913 5.71439L33.208 33.0925L6.11665 39.2739L0 11.8958ZM6.63698 16.1375L10.3139 32.5667L26.5595 28.8508L22.8941 12.4333L6.63698 16.1375Z" fill="#FBD30B"/>
<path fill-rule="evenodd" clip-rule="evenodd" d="M11.2042 23.7328L26.0391 0.000396729L49.5229 14.9923L34.688 38.713L11.2042 23.7328ZM18.8703 21.98L32.9536 30.9775L41.8569 16.7334L27.7735 7.74759L18.8703 21.98Z" fill="#ED6E1E"/>
</g>
<defs>
<clipPath id="clip0">
<rect width="270" height="45" fill="white"/>
</clipPath>
</defs>
</svg>
