<svg width="17" height="17" viewBox="0 0 17 17" fill="none" xmlns="http://www.w3.org/2000/svg">
<path d="M16.1507 3.33422H12.9506C13.2535 2.95157 13.3785 2.44548 13.4222 2.21396C13.4755 1.93183 13.567 1.2199 13.2692 0.695277C13.0189 0.246878 12.5844 0 12.0456 0C11.1491 0 10.1517 0.683323 9.63695 1.09068C9.39749 1.28017 9.17165 1.48044 8.96653 1.68317V1.65987C8.96653 1.45093 8.79713 1.28157 8.58823 1.28157H8.41168C8.20274 1.28157 8.03338 1.45093 8.03338 1.65987V1.68317C7.82823 1.48044 7.60238 1.28017 7.36296 1.09068C6.84824 0.683323 5.85085 0 4.95428 0C4.41551 0 3.98111 0.246878 3.73075 0.695277C3.43288 1.2199 3.52446 1.93183 3.57776 2.21396C3.6215 2.44552 3.74645 2.95161 4.04935 3.33422H0.849278C0.640343 3.33422 0.470978 3.50359 0.470978 3.71252V6.41718C0.470978 6.62611 0.640343 6.79548 0.849278 6.79548H1.71929V16.6217C1.71929 16.8306 1.88869 17 2.09759 17H6.91062H10.0894H14.9024C15.1113 17 15.2807 16.8306 15.2807 16.6217V6.79548H16.1507C16.3596 6.79548 16.529 6.62611 16.529 6.41718V3.71252C16.529 3.50359 16.3596 3.33422 16.1507 3.33422ZM6.54556 3.09052C6.54553 3.09052 6.54545 3.09052 6.54537 3.09052C5.8661 3.09052 5.29351 2.94518 5.01364 2.70182L4.98727 2.68025C4.91195 2.6223 4.76544 2.3873 4.69292 2.00329C4.62006 1.61761 4.66954 1.33979 4.71785 1.25524L4.72121 1.2493C4.75723 1.18446 4.79725 1.13486 4.95428 1.13486C5.34639 1.13486 5.99949 1.45891 6.65871 1.98059C7.08479 2.31777 7.42458 2.66463 7.65818 2.95558C7.35709 3.03506 6.97444 3.09052 6.54556 3.09052ZM9.63484 15.5237H7.36511V8.7099H9.63484V15.5237ZM9.63484 6.80141H7.36511V4.99761H9.63484V6.80141ZM12.307 2.00332C12.2345 2.38734 12.088 2.62234 12.0127 2.68029L11.9863 2.70186C11.7064 2.94525 11.1338 3.09056 10.4546 3.09056C10.0257 3.09056 9.64293 3.03506 9.34184 2.95566C9.5754 2.66471 9.91519 2.31781 10.3413 1.98066C11.0005 1.45899 11.6536 1.13494 12.0457 1.13494C12.2027 1.13494 12.2427 1.18453 12.2788 1.24937L12.2822 1.25531C12.3304 1.33982 12.3799 1.61765 12.307 2.00332Z" fill="#ED371E"/>
</svg>
