<svg width="24" height="24" viewBox="0 0 24 24" fill="none" xmlns="http://www.w3.org/2000/svg">
<rect width="24" height="24" rx="5" fill="#2CC54E"/>
<g clip-path="url(#clip0)">
<path d="M15.6713 13.538L15.6653 13.588C14.1993 12.8573 14.046 12.76 13.8566 13.044C13.7253 13.2407 13.3426 13.6867 13.2273 13.8187C13.1106 13.9487 12.9946 13.9587 12.7966 13.8687C12.5966 13.7687 11.9546 13.5587 11.1946 12.8787C10.6026 12.3487 10.2053 11.6987 10.088 11.4987C9.89264 11.1613 10.3013 11.1133 10.6733 10.4093C10.74 10.2693 10.706 10.1593 10.6566 10.06C10.6066 9.96001 10.2086 8.98001 10.042 8.58934C9.88197 8.20001 9.7173 8.24934 9.59397 8.24934C9.20997 8.21601 8.9293 8.22134 8.68197 8.47868C7.60597 9.66134 7.8773 10.8813 8.79797 12.1787C10.6073 14.5467 11.5713 14.9827 13.334 15.588C13.81 15.7393 14.244 15.718 14.5873 15.6687C14.97 15.608 15.7653 15.188 15.9313 14.718C16.1013 14.248 16.1013 13.858 16.0513 13.768C16.002 13.678 15.8713 13.628 15.6713 13.538V13.538Z" fill="white"/>
<path d="M17.68 6.29849C12.554 1.34316 4.07067 4.93716 4.06733 11.9278C4.06733 13.3252 4.43333 14.6878 5.13067 15.8912L4 19.9992L8.22333 18.8978C13.4933 21.7445 19.9973 17.9645 20 11.9318C20 9.81449 19.1733 7.82183 17.67 6.32449L17.68 6.29849ZM18.668 11.9098C18.664 16.9985 13.078 20.1765 8.66 17.5792L8.42 17.4365L5.92 18.0865L6.59 15.6565L6.43067 15.4065C3.68133 11.0298 6.84 5.30983 12.048 5.30983C13.8173 5.30983 15.478 5.99983 16.7287 7.24983C17.9787 8.48916 18.668 10.1498 18.668 11.9098V11.9098Z" fill="white"/>
</g>
<defs>
<clipPath id="clip0">
<rect width="16" height="16" fill="white" transform="translate(4 4)"/>
</clipPath>
</defs>
</svg>
