<svg width="33" height="29" viewBox="0 0 33 29" fill="none" xmlns="http://www.w3.org/2000/svg">
<path d="M25.3844 25.9233C25.3844 26.6243 25.633 27.2224 26.1284 27.7178C26.6238 28.2136 27.2223 28.4618 27.9236 28.4618C28.6239 28.4618 29.2224 28.2136 29.7178 27.7178C30.2137 27.2224 30.4618 26.6243 30.4618 25.9233C30.4618 25.2223 30.214 24.6242 29.7178 24.1283C29.2224 23.6329 28.6239 23.3848 27.9236 23.3848C27.2223 23.3848 26.6238 23.6329 26.1284 24.1283C25.633 24.6242 25.3844 25.2223 25.3844 25.9233Z" fill="#ED6E1E"/>
<path d="M32.6231 3.45341C32.3718 3.20217 32.0745 3.07651 31.7307 3.07651H7.9129C7.8995 2.98406 7.86977 2.81562 7.82351 2.57104C7.77725 2.32633 7.74099 2.13142 7.71452 1.98583C7.68792 1.84087 7.6386 1.66555 7.56574 1.46064C7.49301 1.25559 7.40709 1.09346 7.30796 0.974755C7.20898 0.855421 7.0768 0.753243 6.91148 0.667042C6.7463 0.581396 6.55778 0.53833 6.34634 0.53833H1.26948C0.925504 0.53833 0.62807 0.664194 0.376898 0.915088C0.125656 1.16626 0 1.4639 0 1.8076C0 2.15129 0.125656 2.44879 0.376898 2.69996C0.628278 2.95121 0.925781 3.07672 1.26948 3.07672H5.3147L8.82472 19.3984C8.79847 19.4512 8.66295 19.7022 8.41823 20.152C8.17366 20.6017 7.97868 20.9949 7.83337 21.332C7.68799 21.6695 7.61526 21.9305 7.61526 22.1154C7.61526 22.4591 7.74092 22.7567 7.99202 23.0083C8.24354 23.2588 8.5409 23.3848 8.88467 23.3848H10.1539H27.9231H29.1916C29.5353 23.3848 29.8328 23.2588 30.0839 23.0083C30.3354 22.7568 30.4609 22.4592 30.4609 22.1154C30.4609 21.7717 30.3354 21.4741 30.0839 21.2231C29.8329 20.972 29.5353 20.846 29.1916 20.846H10.9468C11.2643 20.2113 11.4229 19.7887 11.4229 19.5771C11.4229 19.4445 11.4064 19.299 11.3733 19.1407C11.3401 18.9824 11.3005 18.8069 11.2543 18.6149C11.2079 18.4238 11.1784 18.2816 11.1652 18.1889L31.87 15.7695C32.2001 15.7296 32.4714 15.5879 32.6829 15.343C32.8945 15.0987 33 14.8178 33 14.5003V4.3462C32.9999 4.0025 32.8745 3.705 32.6231 3.45341Z" fill="#ED6E1E"/>
<path d="M7.61517 25.9233C7.61517 26.6243 7.86294 27.2224 8.35883 27.7178C8.85485 28.2136 9.45284 28.4618 10.1538 28.4618C10.8543 28.4618 11.4526 28.2136 11.9483 27.7178C12.4442 27.2224 12.6922 26.6243 12.6922 25.9233C12.6922 25.2223 12.4444 24.6242 11.9483 24.1283C11.4526 23.6329 10.8543 23.3848 10.1538 23.3848C9.45291 23.3848 8.85457 23.6329 8.35883 24.1283C7.86322 24.6242 7.61517 25.2223 7.61517 25.9233Z" fill="#ED6E1E"/>
</svg>
