<svg width="50" height="54" viewBox="0 0 50 54" fill="none" xmlns="http://www.w3.org/2000/svg">
<path d="M10.3673 10.7084C18.3398 3.49676 30.2709 3.38649 38.3537 9.96956L31.947 10.2121C31.12 10.2452 30.4804 10.9289 30.5135 11.7559C30.5466 12.5609 31.2082 13.1894 32.0021 13.1894C32.0242 13.1894 32.0352 13.1894 32.0573 13.1894L41.8933 12.8255C42.6983 12.7924 43.3268 12.1419 43.3268 11.3369V11.2266C43.3268 11.2046 43.3268 11.1935 43.3268 11.1715V11.1605L42.9629 1.43473C42.9298 0.607708 42.2351 -0.0318532 41.4191 0.0012275C40.5921 0.0343082 39.9526 0.717977 39.9856 1.545L40.2172 7.64288C36.2144 4.36788 31.2854 2.47126 26.0145 2.20661C19.4866 1.8758 13.2123 4.11427 8.37148 8.50298C1.71122 14.5347 -1.11167 23.7091 1.0055 32.4424C1.1709 33.1261 1.77738 33.5782 2.45002 33.5782C2.57132 33.5782 2.68159 33.5671 2.80288 33.5341C3.59682 33.3356 4.09303 32.5306 3.89455 31.7367C2.04203 24.0619 4.51206 16.0013 10.3673 10.7084Z" fill="#ED6E1E"/>
<path d="M48.9944 21.559C48.796 20.7651 47.991 20.2689 47.1971 20.4674C46.4031 20.6658 45.9069 21.4708 46.1054 22.2647C47.9689 29.9395 45.4879 38.0001 39.6326 43.2931C35.5196 47.0091 30.359 48.8396 25.2204 48.8396C20.3135 48.8396 15.4175 47.1745 11.4699 43.8885L17.9537 43.3041C18.7697 43.2269 19.3762 42.5101 19.299 41.6831C19.2218 40.8561 18.505 40.2607 17.678 40.3378L7.8751 41.22C7.05911 41.2972 6.45263 42.0139 6.52982 42.841L7.41197 52.6439C7.47813 53.4158 8.12872 54.0002 8.88958 54.0002C8.93368 54.0002 8.97779 54.0002 9.0219 53.9892C9.83789 53.912 10.4444 53.1952 10.3672 52.3682L9.83789 46.4026C13.8407 49.6446 18.7476 51.5302 23.9854 51.7948C24.4044 51.8169 24.8235 51.8279 25.2315 51.8279C31.3073 51.8279 37.0854 49.6004 41.6285 45.4984C48.2887 39.4667 51.1116 30.3034 48.9944 21.559Z" fill="#ED6E1E"/>
</svg>
