<svg width="11" height="15" viewBox="0 0 11 15" fill="none" xmlns="http://www.w3.org/2000/svg">
<path d="M5.5 0C8.49546 0 10.9324 2.43697 10.9324 5.4324C10.9324 9.14982 6.07094 14.6072 5.86396 14.8377C5.66954 15.0543 5.33011 15.0539 5.13605 14.8377C4.92907 14.6072 0.0675716 9.14982 0.0675716 5.4324C0.0676298 2.43697 2.50457 0 5.5 0ZM5.5 8.1656C7.00709 8.1656 8.23317 6.93949 8.23317 5.4324C8.23317 3.92531 7.00706 2.69924 5.5 2.69924C3.99294 2.69924 2.76687 3.92534 2.76687 5.43243C2.76687 6.93952 3.99294 8.1656 5.5 8.1656Z" fill="#ED6E1E"/>
</svg>
