<svg width="20" height="20" viewBox="0 0 20 20" fill="none" xmlns="http://www.w3.org/2000/svg">
<circle cx="10" cy="10" r="9" stroke="#ED6E1E" stroke-width="2"/>
<path d="M9.778 15.084C9.526 15.084 9.316 15.014 9.148 14.874C8.98933 14.7247 8.91 14.5147 8.91 14.244V8.84C8.91 8.56933 8.98933 8.364 9.148 8.224C9.316 8.084 9.526 8.014 9.778 8.014C10.03 8.014 10.24 8.084 10.408 8.224C10.576 8.364 10.66 8.56933 10.66 8.84V14.244C10.66 14.5147 10.576 14.7247 10.408 14.874C10.24 15.014 10.03 15.084 9.778 15.084ZM9.778 6.768C9.46067 6.768 9.20867 6.684 9.022 6.516C8.83533 6.33867 8.742 6.11 8.742 5.83C8.742 5.55 8.83533 5.326 9.022 5.158C9.20867 4.99 9.46067 4.906 9.778 4.906C10.086 4.906 10.3333 4.99 10.52 5.158C10.716 5.326 10.814 5.55 10.814 5.83C10.814 6.11 10.7207 6.33867 10.534 6.516C10.3473 6.684 10.0953 6.768 9.778 6.768Z" fill="#ED6E1E"/>
</svg>
