<svg width="16" height="16" viewBox="0 0 16 16" fill="none" xmlns="http://www.w3.org/2000/svg">
<g clip-path="url(#clip0)">
<path d="M6.62538 9.37465C5.09821 7.84748 4.75338 6.32031 4.67558 5.70845C4.65385 5.53926 4.71207 5.3696 4.8331 5.24941L6.06896 4.0141C6.25076 3.83242 6.28302 3.54927 6.14676 3.33134L4.17903 0.275894C4.02828 0.034583 3.71874 -0.0525085 3.46427 0.0747902L0.305378 1.56251C0.0996006 1.66384 -0.0214345 1.88247 0.00192917 2.11065C0.167446 3.68307 0.852963 7.54845 4.65158 11.3473C8.4502 15.1462 12.315 15.8315 13.8883 15.997C14.1165 16.0204 14.3351 15.8993 14.4364 15.6935L15.9241 12.5347C16.051 12.2807 15.9644 11.972 15.7241 11.821L12.6687 9.85382C12.4509 9.71742 12.1678 9.74945 11.9859 9.93107L10.7506 11.1669C10.6304 11.288 10.4608 11.3462 10.2916 11.3244C9.67972 11.2467 8.15255 10.9018 6.62538 9.37465Z" fill="#ED6E1E"/>
<path d="M12.6897 8.55171C12.3849 8.55171 12.1379 8.30469 12.1379 7.99999C12.1353 5.71574 10.2842 3.86464 8 3.86205C7.69529 3.86205 7.44827 3.61504 7.44827 3.31033C7.44827 3.00562 7.69529 2.75861 8 2.75861C10.8934 2.7618 13.2382 5.10658 13.2414 7.99999C13.2414 8.30469 12.9944 8.55171 12.6897 8.55171Z" fill="#ED6E1E"/>
<path d="M15.4483 8.55172C15.1436 8.55172 14.8965 8.30471 14.8965 8C14.8923 4.1929 11.8071 1.10771 8 1.10345C7.69529 1.10345 7.44827 0.856433 7.44827 0.551724C7.44827 0.247015 7.69529 0 8 0C12.4163 0.00486507 15.9951 3.58374 16 8C16 8.14633 15.9419 8.28666 15.8384 8.39013C15.7349 8.4936 15.5946 8.55172 15.4483 8.55172Z" fill="#ED6E1E"/>
</g>
<defs>
<clipPath id="clip0">
<rect width="16" height="16" fill="white"/>
</clipPath>
</defs>
</svg>
