<svg width="169" height="169" viewBox="0 0 169 169" fill="none" xmlns="http://www.w3.org/2000/svg">
<circle cx="84.5" cy="84.5" r="83" stroke="#ED6E1E" stroke-width="3"/>
<g clip-path="url(#clip0)">
<path d="M60.9225 60.9225C66.0314 55.8136 72.824 53 80.0489 53C87.2739 53 94.0664 55.8136 99.1752 60.9225C104.284 66.0313 107.098 72.8238 107.098 80.0487C107.098 86.6542 104.745 92.8973 100.437 97.8238L115.459 112.846C116.18 113.567 116.18 114.737 115.459 115.459C115.098 115.819 114.625 116 114.152 116C113.68 116 113.207 115.82 112.846 115.459L97.824 100.437C92.8976 104.744 86.6544 107.098 80.0489 107.098C72.8238 107.098 66.0315 104.284 60.9226 99.1751C55.8138 94.0663 53.0003 87.2737 53.0003 80.0488C53.0003 72.8238 55.8137 66.0313 60.9225 60.9225ZM63.5355 96.5622C72.6411 105.668 87.4566 105.668 96.5622 96.5622C105.668 87.4567 105.668 72.641 96.5622 63.5355C92.0089 58.9823 86.0298 56.7064 80.0488 56.7064C74.0692 56.7064 68.0876 58.9834 63.5354 63.5355C54.4302 72.6409 54.4302 87.4566 63.5355 96.5622Z" fill="#ED6E1E"/>
</g>
<defs>
<clipPath id="clip0">
<rect width="63" height="63" fill="white" transform="matrix(-1 0 0 1 116 53)"/>
</clipPath>
</defs>
</svg>
