<svg width="21" height="21" viewBox="0 0 21 21" fill="none" xmlns="http://www.w3.org/2000/svg">
<path fill-rule="evenodd" clip-rule="evenodd" d="M8.9375 2.90625C5.60653 2.90625 2.90625 5.60653 2.90625 8.9375C2.90625 12.2685 5.60653 14.9688 8.9375 14.9688C12.2685 14.9688 14.9688 12.2685 14.9688 8.9375C14.9688 5.60653 12.2685 2.90625 8.9375 2.90625ZM0.90625 8.9375C0.90625 4.50196 4.50196 0.90625 8.9375 0.90625C13.373 0.90625 16.9688 4.50196 16.9688 8.9375C16.9688 13.373 13.373 16.9688 8.9375 16.9688C4.50196 16.9688 0.90625 13.373 0.90625 8.9375Z" fill="#ED6E1E"/>
<path fill-rule="evenodd" clip-rule="evenodd" d="M13.2038 13.2038C13.5944 12.8133 14.2275 12.8133 14.6181 13.2038L19.8009 18.3867C20.1914 18.7772 20.1914 19.4103 19.8009 19.8009C19.4103 20.1914 18.7772 20.1914 18.3867 19.8009L13.2038 14.6181C12.8133 14.2275 12.8133 13.5944 13.2038 13.2038Z" fill="#ED6E1E"/>
</svg>
